<?xml version="1.0" encoding="utf-8"?>
<!-- Generator: Adobe Illustrator 23.1.0, SVG Export Plug-In . SVG Version: 6.00 Build 0)  -->
<svg version="1.1" xmlns="http://www.w3.org/2000/svg" xmlns:xlink="http://www.w3.org/1999/xlink" x="0px" y="0px"
	 viewBox="0 0 960 1080" style="enable-background:new 0 0 960 1080;" xml:space="preserve">
<style type="text/css">
	.st0{fill:#F3E7D9;}
	.st1{fill:#288453;}
	.st2{fill:#33A86D;}
	.st3{fill:#F7BC4B;}
	.st4{fill:#EE5D4F;}
	.st5{fill:#665070;}
	.st6{fill:#856792;}
	.st7{fill:#BB83C3;}
	.st8{fill:#4B3355;}
	.st9{fill:#CC6D3D;}
	.st10{fill:#F5894E;}
	.st11{fill:#C94039;}
	.st12{fill:#273252;}
	.st13{fill:#3E4C6F;}
	.st14{fill:#CE9436;}
	.st15{fill:#CE6D3E;}
	.st16{fill:#48598B;}
	.st17{fill:#3E4D70;}
	.st18{fill:none;stroke:#1D2538;stroke-width:0.75;stroke-linecap:round;stroke-linejoin:round;stroke-miterlimit:10;}
	.st19{fill:#2A3452;}
	.st20{fill:#29ABE2;}
	.st21{fill:#1689CB;}
	.st22{fill:#FEED7F;}
	.st23{fill:none;stroke:#FEED7F;stroke-miterlimit:10;}
	.st24{fill:none;stroke:#F7BC4B;stroke-miterlimit:10;}
</style>
<g id="clouds">
	<path class="st0" d="M627.33,473.2c0,0,13.3-87.81,54.55-103.78c41.24-15.97,77.17,19.96,90.47,47.9s15.97,58.54,2.66,74.51
		c0,0,26.61-15.97,43.91-15.97c17.3,0,15.97,15.97,15.97,23.95s-7.98,21.29-33.26,27.94s-54.55,22.62-58.54,25.28
		s27.94,1.33,22.62,9.31c-5.32,7.98-123.73,54.55-123.73,54.55L627.33,473.2z"/>
	<path class="st0" d="M80.51,517.11c0,0,488.28-198.24,537.51-218.2c49.23-19.96,67.85-26.61,67.85-26.61s-47.9,26.61-33.26,25.28
		c14.64-1.33,227.51-103.78,227.51-103.78s-6.65-6.65-27.94-5.32c-21.29,1.33-79.83,25.28-79.83,25.28s-21.29-30.6-54.55-29.27
		c-33.26,1.33-70.51,37.25-70.51,37.25s31.93-94.46-17.3-123.73s-110.43-43.91-151.67,6.65c0,0-14.64-42.58-69.18-35.92
		c-54.55,6.65-130.39,83.82-105.11,192.92l6.65,25.28c0,0-115.75-27.94-172.96,27.94s-17.3,131.72-17.3,131.72
		S67.2,503.8,61.88,513.12C56.56,522.43,80.51,517.11,80.51,517.11z"/>
</g>
<g id="grass">
	<path class="st1" d="M676.11,764.57c0,0-8.87-86.92,3.55-78.05c12.42,8.87,2.66,35.48,2.66,35.48s10.64-30.16,12.42-17.74
		c1.77,12.42,0,23.06,0,23.06s4.43-39.91,11.53-39.03s-3.55,45.24-3.55,45.24s-1.77-0.89,11.53-5.32
		c13.3-4.43-9.76,31.93-9.76,31.93L676.11,764.57z"/>
	<path class="st1" d="M728.01,734.8c0,0-22.32-33.22-14.76-45.64c7.57-12.43,11.23,24.19,11.23,24.19s-3.6-29.04,2.72-20.06
		c6.31,8.97,13.22,36.73,13.22,36.73s-10.36-41.64,1.3-38.53c11.66,3.11,8.36,16.74,8.36,16.74s3.85-31.91,11.89-16
		c8.04,15.91-11.93,45.48-11.93,45.48L728.01,734.8z"/>
	<path class="st1" d="M755.05,836.42c0,0-7.98-30.16,0.89-38.14c8.87-7.98,2.66,11.53,2.66,11.53s18.63-16.85,16.85-1.77
		c-1.77,15.08-7.1,16.85-7.1,16.85s30.16-7.98,14.19,7.1C766.59,847.06,755.05,836.42,755.05,836.42z"/>
	<path class="st2" d="M749.73,758.37c0,0,30.16-31.04,27.5-15.08c-2.66,15.97-7.98,16.85-7.98,16.85s27.5-10.64,21.29,1.77
		c-6.21,12.42-20.4,11.53-20.4,11.53s29.27,3.55,7.1,10.64C755.05,791.18,708.93,796.51,749.73,758.37z"/>
	<path class="st2" d="M739.09,757.48c0,0,12.42-30.16,3.55-30.16s-10.64,19.51-10.64,19.51s7.98-42.58-11.53-36.37
		s3.55,31.04,3.55,31.04s-27.5-20.4-24.84-8.87c2.66,11.53,13.3,16.85,13.3,16.85s-22.17,14.19-4.43,17.74
		C725.78,770.78,739.09,757.48,739.09,757.48z"/>
	<path class="st1" d="M738.2,760.14c0,0,3.55-54.11,14.19-47.01c10.64,7.1,3.55,19.51,3.55,19.51s13.3-27.5,15.08-16.85
		c1.77,10.64-7.1,23.06-7.1,23.06s15.97-3.55,1.77,12.42S738.2,760.14,738.2,760.14z"/>
</g>
<g id="ground">
	<path class="st1" d="M245.14,951.45c-40.25-13.42-168.81,4.56-110.03,24.15C175.37,989.02,285.4,964.87,245.14,951.45z"/>
	<path class="st1" d="M463.06,920.07c-53.35-17.78-223.74,6.04-145.84,32.01C370.58,969.86,516.42,937.85,463.06,920.07z"/>
	<path class="st1" d="M387.25,939.3l-41.39,6.81c0,0-10.05-22.47-18.33-23.06c-10.31-0.74-9.79,10.65,2.54,25.22
		c0,0-12.86-16.37-21.3-8.97c-8.44,7.4,0,17.94,0,17.94s-36.99,2.24-56.05,11.21c-19.06,8.97-20.18,14.57,16.82,15.69
		c0,0-12.97,3.36-14.15,8.68s12.94,17.57,63.86,14.78c43.17-2.37,59.03-1.04,59.03-1.04s-11.41,27.17,70.38,30.09
		c84.24,3.01,114.8-9.43,114.8-18.4c0-8.97,0-8.97,0-8.97s93.88,11.41,166.75-8.77s4.55-78.02-122.13-75.78
		C481.42,926.97,387.25,939.3,387.25,939.3z"/>
	<path class="st2" d="M251.98,978.74c0,0-3.38-29.33,6.77-19.18C268.9,969.71,257.62,985.51,251.98,978.74z"/>
	<path class="st2" d="M336.22,970.84c0,0-14.67-13.54-7.9-30.46C335.09,923.45,350.88,969.71,336.22,970.84z"/>
	<path class="st2" d="M345.62,961.44c0,0-7.9-46.26,7.9-45.13C369.31,917.44,354.64,967.08,345.62,961.44z"/>
	<path class="st2" d="M199.06,977.77c0,0,1.19-16.7-5.97-17.9C185.93,958.68,188.32,975.39,199.06,977.77z"/>
	<g>
		<path class="st3" d="M208.6,922.89c-11.93-1.19-48.92,35.79-17.9,27.44C221.73,941.98,220.53,924.08,208.6,922.89z"/>
		<path class="st3" d="M212.98,946.35c-14.32,16.7-11.93,40.57,13.12,17.9S227.3,929.65,212.98,946.35z"/>
		<path class="st3" d="M238.43,922.09c-9.94-1.59-30.23,14.72-9.55,13.52C249.57,934.42,248.37,923.68,238.43,922.09z"/>
		<path class="st4" d="M196.27,936.41c-5.57,4.37-6.76,12.33,0.8,5.17S201.84,932.03,196.27,936.41z"/>
		<path class="st4" d="M219.74,951.92c-5.57,4.37-6.76,12.33,0.8,5.17S225.31,947.55,219.74,951.92z"/>
		<path class="st4" d="M230.44,928.41c0,0-1.62,4.89,5.31,0.54C242.68,924.61,230.44,928.41,230.44,928.41z"/>
	</g>
</g>
<g id="branch">
	<g>
		<path class="st5" d="M469.64,999.28l-97.53-28.03l-20.18-207.39l-23.54-21.3l-17.94-236.54l195.06-49.33l146.86-19.06
			l21.08,300.11l5.83,12.66c0,0,55.72,7.82,78.91,12.03c0,0,0.42,6.35-0.25,15.88l-1.31,52.8l67.16,16.5l20.18,71.96l38.17,10.61
			l12.17,49.34l-109.21,20.1l-76.17-12.42l-52.33,10.64l-102.88,3.67L469.64,999.28z"/>
		<polygon class="st6" points="310.46,506.02 339.6,510.5 334,514.99 410.23,516.11 514.49,500.41 590.72,476.87 573.9,466.78 
			652.37,437.64 526.58,453.79 364.27,481.36 		"/>
		<polygon class="st7" points="590.72,476.87 573.94,466.77 652.37,437.64 677,736.63 679.28,750.41 617.26,705.75 		"/>
		<g>
			<path class="st7" d="M744.71,922.16l99.56-2.59c0,0,25.72,7.1,32.6,8.94c3.15,0.85,5.48,1.35,5.28,1.71s-5.84,2.46-20.65,5.83
				c-26.02,5.91-80.42,15.97-80.42,15.97l-34.89-18.92L744.71,922.16z"/>
			<polygon class="st8" points="785.21,999.62 780.89,951.95 745,922.46 739.38,881.95 681.14,864.51 660.74,856.52 634.43,847.95 
				615.36,801.83 551.48,781.8 559.48,848.39 579.52,909.02 578.57,911.95 593.48,957.05 656.6,997.85 658.94,997.37 657.93,998.74 
				682.32,1000.73 692.97,998.98 			"/>
			<path class="st7" d="M621.79,744.25l1.63,14.19l-71.93,23.36l63.43,21.8c0,0,106.44-13.08,113.09-15.3
				c6.65-2.22,34.96-25.8,29.49-26.31c-15.65-4.17-78.21-11.58-78.21-11.58L621.79,744.25z"/>
			<path class="st7" d="M676.41,850.32l80.22-19.19c0,0,30.07,5.57,40.7,7.96c17.26,3.88,26.57,7.65,26.46,8.65
				c-0.11,1-13.3,8.2-31.04,14.41c-13.07,4.57-49.52,19.81-53.37,19.81s-9.69-3.49-16.56-5.32c-7.31-1.95-53.56-15.59-53.22-15.67
				l-34.99-12.79C631.35,846.23,672.67,851,676.41,850.32z"/>
		</g>
		<path class="st8" d="M515.57,507.79c0,0,7.98,101.12,9.31,134.38c1.33,33.26,17.3,304.68,17.3,304.68l6.65,14.64L534.2,670.11
			L515.57,507.79z"/>
		<polygon class="st8" points="500.49,638.62 510.25,712.24 534.2,755.26 533.61,766.35 506.11,718.45 		"/>
		<polygon class="st6" points="594.22,456.5 605.16,516.22 603.68,450.58 		"/>
		<path class="st6" d="M628.22,487.84l-1.77,53.22L642.7,586l2.37,49.97l0.89-50.56l-14.19-47.01
			C631.76,538.39,629.1,491.38,628.22,487.84z"/>
		<polygon class="st6" points="534.2,486.95 547.5,503.8 548.39,486.95 		"/>
		<polygon class="st6" points="618.9,448.37 622.01,458.27 625.56,445.7 		"/>
		<polygon class="st6" points="671.03,663.75 661.92,672.77 672.57,682.82 		"/>
		<path class="st8" d="M561.69,888.75l-1.77,49.67c0,0,8.87,30.16,8.87,35.48c0,5.32,2.66,23.06,2.66,23.06l1.77-21.29l-7.1-39.03
			L561.69,888.75z"/>
		<polygon class="st8" points="556.34,494.14 562.45,573.21 568.41,674.23 566.08,496.78 578.87,482.87 550.32,490.23 		"/>
		<path class="st8" d="M407.07,516.65l4.43,35.05l3.55,74.51l5.91,39.03l-2.37-36.66c0,0,0-73.32,0-75.69
			c0-2.37-5.2-36.76-5.2-36.76L407.07,516.65z"/>
		<path class="st8" d="M394.05,901.17c0-4.43-0.89-57.65-0.89-57.65L389,770.53l-10.02-9.95c0,0,10.22-8.01,9.54-9.68l-0.67-27.57
			l1.33-41.24l-20.84,56.77l-10.64-6.21l22.17,231.5l6.65-83.82l0.71-27.37C390.28,875.94,394.05,903.81,394.05,901.17z"/>
		<polygon class="st6" points="739.51,836.34 738.99,826.96 738.01,806.25 741.49,822.73 742.42,838.21 		"/>
		<polygon class="st5" points="576.33,908.26 623.34,911.66 665.84,948.7 672.34,979.44 663.18,950.47 621.12,913.88 576.77,911.37 
					"/>
		<path class="st5" d="M679.37,937.53l9.46,29.57l0.59,31.64l3.84,0.59c0-1.18-1.18-32.52-1.18-32.52l-10.64-30.16l-41.24-29.05
			L679.37,937.53z"/>
		<polygon class="st8" points="415.34,738.85 417.12,792.96 410.02,836.42 408.25,903.83 406.47,827.55 413.57,784.97 		"/>
		<polygon class="st8" points="412.68,815.13 420.66,839.08 426.87,886.98 433.97,969.47 430.42,888.75 426.87,837.31 
			414.45,801.83 		"/>
		<polygon class="st8" points="390.67,976.56 402.04,979.89 393.17,960.6 		"/>
		<path class="st8" d="M469.64,999.28l-46.32-12.96c0,0,10.64-11.53,15.08-6.21c4.43,5.32,4.43,5.32,4.43,5.32
			s28.38-23.95,34.59-14.19S473,988.09,473,988.09s6.5-2.96,12.71,0c6.21,2.96,2.37,11.24,2.37,11.24l-17.44,0.3"/>
		<polygon class="st6" points="594.22,796.51 603.68,807.15 605.45,800.64 		"/>
		<path class="st6" d="M728,788.3l-0.15,21.8c0,0,2.96,15.37,2.96,17.15c0,1.77,1.18-17.15,1.18-17.15l-0.59-29.57L728,788.3z"/>
		<polygon class="st8" points="624.37,830.8 637.38,834.35 626.74,843.81 		"/>
		<polygon class="st8" points="532.87,1000.95 522.81,1000.66 523.55,941.97 		"/>
		<polygon class="st8" points="505.96,1000.36 502.56,1000.21 503.15,977.6 		"/>
		<polygon class="st6" points="814.48,945.52 814.48,957.94 820.69,978.34 823.35,993.41 821.58,969.47 818.03,957.94 
			818.03,944.63 		"/>
		<polygon class="st6" points="754.17,868.35 762.15,883.43 759.49,896.73 763.04,916.25 763.04,898.51 766.59,883.43 
			759.49,863.03 		"/>
	</g>
	<path class="st1" d="M478,1005.87c0,0-3.01,0-5.27-6.95c-2.26-6.95,5.27-1.49,5.27-1.49s-6.02-20.36-1.5-26.32
		c4.51-5.96,6.77,5.46,6.77,5.46l5.27-10.93l3.76,9.44c0,0,11.28-16.39,9.03-6.95c-2.26,9.44-14.29,31.79-14.29,31.79
		s7.52-9.44,9.78-7.95S490.78,1007.36,478,1005.87z"/>
	<polygon class="st8" points="623.41,758.44 612.52,667.51 605,712.87 580.87,691.51 606.19,749.26 566.1,776.96 	"/>
</g>
<g id="right_arm_1_">
	<g>
		<path class="st9" d="M485.51,350.81c0,0-8.55,22.29-12.61,28.29c-4.06,6-0.01,11.86,3.48,14.25c3.49,2.38,8.79,4.67,17.92-7.83
			c9.13-12.5,13.78-27.02,13.78-27.02S498.67,338.33,485.51,350.81z"/>
		<path class="st10" d="M494.58,378.44c0,0-13.42,12.5-11.16,14.04c2.26,1.54,7.64-1.23,14.19-11.75c5.29-8.5,8.13-16.11,8.13-16.11
			L494.58,378.44z"/>
		<path class="st11" d="M502.79,322.78c0,0-5.54,0.97-10.64,12.49c-5.1,11.53-6.64,15.54-6.64,15.54l20.52,12.2
			c0,0,8.64-14.01,11.21-22.54S517.41,316.85,502.79,322.78z"/>
	</g>
</g>
<g id="body">
	<path class="st9" d="M546.61,430.18c1.64-2.42-6.33-5.73-9.21-6.22c-7.7-1.29-33.16-1.79-44.74-0.75
		c-17.23,1.54-20.68,27.67-17.79,30.09c2.89,2.41,1.84,5.62,9.31,4.51c6.25-0.93,22.89-4.03,28.17-5.03c1.05-0.2,1.97-0.8,2.57-1.69
		L546.61,430.18z"/>
	<path class="st12" d="M531.78,394.19c0,0-82.18,19.22-85.63,37.84c-3.45,18.62-1.06,26.25,21.12,26.56
		c15.33,0.21,15.04-1.35,13.39-2.33c-1.18-0.7-1.92-1.94-1.98-3.31c-0.22-5.18,0.67-17.18,12.2-25.84c0.95-0.71,2.15-0.98,3.31-0.72
		c9.85,2.21,43.38,7.66,81.02-4.61C610.11,410.4,531.78,394.19,531.78,394.19z"/>
	<path class="st10" d="M523.55,438.17c4.49-2.35-47.01,2.37-86.63,13.6c-7.59,2.15,3.55,19.51,10.05,21.29s76.87-2.96,89.29-2.96
		S554.3,435.21,523.55,438.17z"/>
	<path class="st13" d="M617.13,439.5c0,0-14.42,6.65-39.03,18.18c-12.3,5.77-17.89,7.98-27.64,10.64
		c-9.76,2.66-30.75,1.77-30.75,1.77l-5.32-31.93l25.43-7.69c0,0,4.14-3.18,12.79-7.17c8.65-3.99,18.37-5.99,39.69-8.65
		S617.13,439.5,617.13,439.5z"/>
	<path class="st12" d="M617.13,439.5c0,0-14.42,6.65-39.03,18.18c0,0,15.52-23.95-8.43-38.58c19.51-5.77,1.29-1.77,22.62-4.43
		S617.13,439.5,617.13,439.5z"/>
	<path class="st14" d="M584.75,375.19c3.55-13.3-12.12-38.44-26.91-56.77c-6.46-8.01-10.9-9.42-18.77-11.09
		c-5.21-1.1-12.73,5.49-28.83,11.09c-15.28,5.31-13.9,7.39-12.42,26.91c1.41,18.55,3.28,17.35,14.45,25.82
		c8.91,6.76,14.91,9.39,14.91,9.39s9.94,15.61,25.21,12.3C572.34,388.49,581.21,388.49,584.75,375.19z"/>
	<path class="st3" d="M584.75,375.19c3.55-13.3-12.12-38.44-26.91-56.77c-6.46-8.01-10.9-9.42-18.77-11.09
		c-5.21-1.1-10.6,12.65-5.17,25.57c7.69,18.33,13.6,33.71,14.19,39.62C548.68,378.44,581.21,388.49,584.75,375.19z"/>
	<path class="st15" d="M501.52,305.99l6.13,13.61c0,0,6.11,11.48,9.88,10.94c3.77-0.53,9.92-2.14,8.03-12.28
		c-1.89-10.14-11.31-26.16-11.31-26.16L501.52,305.99z"/>
	<path class="st14" d="M619.79,412.89c4.14,10.05,6.36,21.73,6.36,21.73s6.21,5.32-5.32,8.87c-11.53,3.55-14.78,2.37-14.78,2.37
		s-36.74-26.17-52.63-24.24s-18.55,1.48-24.54,0.59c-5.99-0.89-49.23-13.3-49.23-13.3s8.85-6.31,24.84-9.76
		c28.83-6.21,61.2-32.37,74.51-35.04C592.29,361.44,615.65,402.83,619.79,412.89z"/>
	<path class="st3" d="M619.79,412.89c4.14,10.05,6.36,21.73,6.36,21.73s6.21,5.32-5.32,8.87c-11.53,3.55-14.78,2.37-14.78,2.37
		l3.55-15.97l-27.2-32.52l-25.57-14.64l16.11-3.1c-7.1-1.77-15.97-5.91-15.97-5.91s8.72-6.95,22.03-9.61
		C592.29,361.44,615.65,402.83,619.79,412.89z"/>
	<path class="st12" d="M542.48,466.99c0,0-5.32-3.1-7.98-8.87c-2.66-5.77-2.66-5.77-2.66-5.77s-0.89,7.54,0.89,8.87h-4.88
		C527.84,461.23,531.83,465.66,542.48,466.99z"/>
</g>
<g id="right_forearm">
	<path class="st9" d="M482.7,378.46c-5.31-1.92-12.71,2.53-21.98,10.56c-8.94,7.74-20.26,17.72-26.04,23.21
		c-5.62,5.35-2.7,15.01,11.62,8.92c14.82-6.3,36.85-20.78,42.95-27.24C495.54,387.25,487.99,380.37,482.7,378.46z"/>
	<path class="st10" d="M486.34,386.49c0,0-6.9,4.66-11.36,9.22c-4.37,4.47-43,31.54-28.68,25.45c14.82-6.3,37.14-20.98,43.24-27.45
		C495.84,387.03,491.08,383.69,486.34,386.49z"/>
	<path class="st9" d="M447.27,422.35c-2.72,4.35-4.29,10.5-8.87,14.34c-1.45,1.22-2.44,1.31-3.66,0.58
		c-1.22-0.73-0.48-4.72,0.7-6.94c1.18-2.22,2.51-5.32,2.51-5.32s-7.13,4.12-10.05,9.31c-2.92,5.19-3.47,9.44-6.8,11.48
		c-4.22,2.6-1.95-5.19-1.95-5.19s-1.93,8.26-4.22,2.92c-0.73-1.7,0.97-8.11,0.97-8.11s-2.6,2.6-4.54-0.32
		c-0.81-1.21,3.57-12.33,8.11-15.25s11.68-9.41,20.77-8.11C449.34,413.02,450.52,417.15,447.27,422.35z"/>
</g>
<g id="head">
	<g>
		<path class="st12" d="M479.2,317.86c0,0,14.17,8.58,22.93-2.65c8.76-11.22-3.86-41.94-20.59-32.37S468.3,312.67,479.2,317.86z"/>
		<path class="st12" d="M469.52,265.1c0,0,7.17-24.87,17.91-28.98c10.74-4.11,16.66,2.72,16.66,2.72s7.89-9.79,27.15-3.46
			c19.26,6.33,18.05,29.19,18.05,29.19s18.39,12.64,5.38,30.84c-13.01,18.2-21.07,14.96-29.64,16.23
			C505.88,314.48,467.11,285.76,469.52,265.1z"/>
		<path class="st16" d="M497.35,251.07c0.62-5.85,5.09-7.49,9.75-8.74c6.46-1.74,12.78,2.02,12.78,2.02s4.75-4.03,16.97,0.71
			s10.48,21.53,10.48,21.53s13.03,15.26,5.56,25.09c-6.39,8.41-12.85,5.26-19.87,3.51c-7.25-1.81-16.69-15.55-24.83-27.75
			c-1.26-1.88-5.76-5.06-6.76-6.75C498.79,256.18,497.19,252.6,497.35,251.07z"/>
		<g>
			<path class="st12" d="M481.63,261.58c-5.51,4.95-29.78,13.96-33.05,9c-3.26-4.96,13.06-20.9,21.75-11.42
				c0,0-10.24-8.26-5.25-14.68C470.07,238.06,487.15,256.62,481.63,261.58z"/>
			<path class="st15" d="M470.69,295.66c10.35,26.08,24.85,27.74,40.7,16.56c11.91-8.39,13.71-21.52,4.48-37.27
				c-9.23-15.75-21.91-24.43-35.25-18.52C463.03,264.23,463.97,278.72,470.69,295.66z"/>
			<path class="st10" d="M478.42,297.83c0.5,1.28,1.02,2.49,1.55,3.63c7.87,16.83,18.67,17.34,30.48,9.03
				c9.47-6.67,13.45-17.88,6.28-30.15s-22.39-13.64-32.97-8.91C469.79,277.68,473.24,284.61,478.42,297.83z"/>
			<path class="st3" d="M520.45,276.51l-11.12,5.18c0,0-10.91-19.46-25.91-17.6c-15.76,1.96-17.3,13.53-17.3,13.53
				s-2.66-20.18,20.48-23.36C504.97,251.73,520.45,276.51,520.45,276.51z"/>
			<path class="st18" d="M489.56,282.09c0,0-4.12-0.48-6.09,0.54"/>
			
				<ellipse transform="matrix(0.1521 -0.9884 0.9884 0.1521 156.0518 750.0418)" class="st10" cx="515.17" cy="284.07" rx="10.44" ry="8.16"/>
			
				<ellipse transform="matrix(0.9677 -0.2519 0.2519 0.9677 -57.3033 132.3509)" class="st12" cx="488.2" cy="289.96" rx="2" ry="3.74"/>
			
				<ellipse transform="matrix(0.9344 -0.3563 0.3563 0.9344 -73.9288 188.1798)" class="st12" cx="473.79" cy="294.75" rx="1.42" ry="3.37"/>
			<path class="st18" d="M472.75,285.66c0,0-2.61,1.1-3.31,2.81"/>
		</g>
		<path class="st19" d="M523.88,283.67c0,0-12.63,0.26-15.8,11.76c-3.16,11.5,14.58,27.1,23.96,13.27
			C541.41,294.87,533.2,282.5,523.88,283.67z"/>
		<path class="st16" d="M529.77,278.73c0,0-11.97,1.45-16.04,13.15s11.24,25.51,21.4,10.91C545.3,288.19,538.69,276.7,529.77,278.73
			z"/>
	</g>
	<g>
		<path class="st4" d="M500.16,263.7c0,0,3.88,8.56,8.98,13.16c3.86,3.48,7.33,4.86,7.33,4.86l-0.41-2.03l2.69-1.12
			c0,0-8.12-3.13-16.57-15.45L500.16,263.7z"/>
		<path class="st4" d="M499.8,262.73c0,0,0.71,9.37,3.93,15.44c2.44,4.59,5.22,7.08,5.22,7.08l0.31-2.05l2.91-0.13
			c0,0-6.56-5.72-10.27-20.19L499.8,262.73z"/>
		<path class="st4" d="M502.25,268.24c2.23,0.2,7.33-10.63,2.32-12.24c-4.72-1.51-10.3-2.36-10.37,1.48
			C494.12,261.32,500.01,268.04,502.25,268.24z"/>
		<path class="st3" d="M505.83,262.26c0,0,0.53-5.09-1.01-5.39c-1.54-0.3-0.75,2.15-1.23,5.47
			C503.12,265.66,505.55,264.4,505.83,262.26z"/>
		<g>
			<path class="st4" d="M501.11,265.4c0,0,0.28-2.33,4.14-3.62c3.86-1.29,6.67-1.8,8.4,0.05c1.73,1.85,0.92,7.72-1.04,10.27
				c-1.96,2.54-8.66-1.6-10.2-3.17C500.88,267.35,501.11,265.4,501.11,265.4z"/>
			<path class="st3" d="M513.54,266.71c0,0-0.54,4.74-2.78,4.93c-3.32,0.29,0.91-7.82,1.45-9.13
				C512.75,261.2,514.96,263.6,513.54,266.71z"/>
		</g>
	</g>
</g>
<g id="typewriter">
	<g>
		<path class="st20" d="M445.4,461.67l26.02-7.85c5.81-1.75,11.89,1.78,13.24,7.7l2.66,11.62c1.12,4.92-1.41,9.94-6.04,11.95
			l-15.5,6.73c-3.56,1.55-7.68,1-10.71-1.42l-13.17-10.51C435.29,474.62,437.31,464.11,445.4,461.67z"/>
		<path class="st21" d="M420.34,456.29l56.75-3.68c1.21-0.08,1.54,1.64,0.38,2.01l-41.27,13.27c-0.29,0.09-0.6,0.05-0.86-0.11
			l-15.48-9.58C419.01,457.67,419.33,456.35,420.34,456.29z"/>
		<g>
			<polygon class="st21" points="445.43,458.27 449.79,456.68 447.17,452.21 442.24,453.49 441.95,457.95 			"/>
			<polygon class="st20" points="443.18,461.82 448.6,459.9 446.39,455.61 441.51,456.79 440.62,460.64 			"/>
			<polygon class="st20" points="452.82,458.86 457.18,457.27 454.57,452.8 449.63,454.08 449.34,458.54 			"/>
			<g>
				<polygon class="st20" points="461.32,455.91 466.05,454.57 464.27,450.44 460.43,451.17 				"/>
				<polygon class="st20" points="461.32,455.91 458.66,455.91 458.21,451.91 460.43,451.17 				"/>
			</g>
		</g>
		<path class="st21" d="M358.43,419.65l-19.11,9.34c-3.88,1.89-3.64,6.04,0.33,6.02l63.97-0.32c0.7,0,1.45-0.26,2.11-0.71
			l11.37-7.71c2.33-1.58,2.23-4.64-0.18-4.74l-56.05-2.42C360.07,419.07,359.21,419.26,358.43,419.65z"/>
		<path class="st21" d="M335.59,441.5l10.03,56.89c0.83,4.7,4.85,8.18,9.62,8.33l64.81,1.96c7.11,0.22,12.2-6.79,9.79-13.48
			l-21.26-59.18c-1.45-4.02-5.27-6.7-9.55-6.67l-53.58,0.33C339.21,429.7,334.51,435.35,335.59,441.5z"/>
		<path class="st20" d="M431.6,506.76l26.02-10.05c5.62-2.13,4.6-6.79,1.68-11.64l-34.82-57.89c-2.96-4.92-7.45-4.99-12.1-1.13
			l-6.5,4.14c-3.01,2.5-4.65,5.05-3.46,8.56l20.7,61.24C424.79,504.89,426.45,508.71,431.6,506.76z"/>
	</g>
</g>
<g id="left_arm">
	<g>
		<path class="st9" d="M556.33,353.62c0,0-2.4,28.85-4.09,37.65c-1.92,9.96-9.58,12.13-18.66,4.49c-7.92-6.67-2.47-38.67-2.77-49.05
			C530.62,339.82,556.8,335.96,556.33,353.62z"/>
		<path class="st10" d="M556.33,353.62c0,0-2.4,28.85-4.09,37.65c-0.87,4.54-9.46-0.73-9.46-0.73l0.08-41.09l6.91-0.07
			C549.77,349.38,556.8,335.96,556.33,353.62z"/>
		<g>
			<path class="st11" d="M556.52,352.71c0,0,4.83-36.72-11.87-39.7c-16.71-2.97-13.83,33.68-13.83,33.68L556.52,352.71z"/>
			<path class="st4" d="M542.8,349.59l2.92-21.65c3.14,1.8,5.4,4.34,6.98,7.11c-0.4-2.9-0.81-5.36-1.21-6.66
				c-1.58-5.1-12.65-14.35-12.65-14.35c2.48-1.93,5.81-1.03,5.81-1.03c16.71,2.97,11.87,39.7,11.87,39.7L542.8,349.59z"/>
		</g>
	</g>
	<path class="st9" d="M508.56,397.02c5.17-2.86,23.57-18.08,32.13-16.43c8.56,1.65,15.12,13.03,6.25,23.01
		c-8.87,9.98-55.2,21.73-62.48,22.91s-15.73-6.21-6.77-11.39C484.29,411.3,503.38,399.89,508.56,397.02z"/>
	<path class="st10" d="M552.23,389.68c0,0,2.37,5.58-5.29,13.92c-9.03,9.83-55.2,21.73-62.48,22.91s18.7-8.3,18.7-8.3
		s32.56-37.14,40.25-37.14C551.09,381.07,552.23,389.68,552.23,389.68z"/>
	<path class="st9" d="M480.64,416.47c0,0-3.51-2.42-13.05,2.37c-6.02,3.02-13.04,8.06-13.71,11.07c-0.66,3.01-2.32,11.72-2.99,13.73
		c-0.67,2.01,2.35,3.68,4.69,0.66c0,0,2.35,2.67,5.36,1.66c3.01-1.01,6.35-6.04,6.35-6.04s-0.33,4.69,0.68,5.69s2.35,1.33,3.35-0.34
		s3-8.37,4.67-10.39c1.67-2.01,7.03-1.02,11.7-7.05C492.37,421.8,480.64,416.47,480.64,416.47z"/>
	<path class="st10" d="M453.88,429.9c-0.66,3.01-2.32,11.72-2.99,13.73c-0.67,2.01,2.35,3.68,4.69,0.66c0,0,2.35,2.67,5.36,1.66
		c3.01-1.01,6.35-6.04,6.35-6.04s-0.33,4.69,0.68,5.69s1.13-2.3,2.13-3.98s2.05-6.98,2.14-8.59c0.13-2.19-9.75-4.69-9.75-4.69
		S454.46,427.27,453.88,429.9z"/>
</g>
<g id="paper">
	<g>
		<path class="st14" d="M405.14,404.9c0,0-5.8-21.58-31.04-27.94c-56.32-14.19-93.58,38.58-93.58,38.58s62.98-12.86,82.05-16.85
			C381.64,394.7,405.14,404.9,405.14,404.9z"/>
		<path class="st14" d="M363.31,660.5l-104.07,2.96c0,0-17.15-25.43,24.84-38.44S364.49,637.44,363.31,660.5z"/>
		<g>
			<polygon class="st13" points="407.26,397.15 321.85,397.95 315.93,426.21 404.87,426.3 			"/>
			
				<ellipse transform="matrix(0.0923 -0.9957 0.9957 0.0923 -40.903 778.6873)" class="st12" cx="406.64" cy="411.78" rx="14.76" ry="11.18"/>
			
				<ellipse transform="matrix(0.2879 -0.9577 0.9577 0.2879 -166.9789 599.5776)" class="st13" cx="319.67" cy="412.07" rx="14.72" ry="12.3"/>
			<path class="st22" d="M393.98,397.21l-69.04,0.58c0,0-5.85,0.95-7.7,11.22c-1.85,10.27,3.17,17.33,3.17,17.33l71.03,0.19
				c0,0-5.5-6.57-5.23-15.75C386.49,401.6,393.98,397.21,393.98,397.21z"/>
		</g>
		<g>
			<path class="st3" d="M339.95,437.28c6.98-27.16,12.86-55.44,23.5-58.98c10.64-3.55,18.22-0.57,31.19,9.9
				c0,0-10.35-17-52.04-15.67c-43.48,1.39-58.1,3.99-69.63,8.43c-11.53,4.43-28.68,16.7-38.14,29.71
				c-12.22,16.81-19.96,49.23,11.37,135.31c34.22,94.02-35.76,101.52-35.76,101.52s89.88-17.15,105.85-15.37
				c15.97,1.77,17.89,14.04,28.53,22.91c5.89,4.91,12.72,6.66,18.36,5.62c4.55-0.84,8.29-3.73,10.47-6.5
				c4.88-6.21,2.66-28.83-3.1-42.58C364.78,597.82,327.08,487.31,339.95,437.28z"/>
		</g>
		<g>
			<line class="st23" x1="360.35" y1="642.17" x2="334.09" y2="643.32"/>
			<line class="st23" x1="349.71" y1="619.11" x2="268.99" y2="622.66"/>
			<line class="st23" x1="351.48" y1="599.6" x2="270.76" y2="603.14"/>
			<line class="st23" x1="345.27" y1="575.65" x2="266.33" y2="580.97"/>
			<line class="st23" x1="335.51" y1="545.49" x2="260.12" y2="553.47"/>
			<line class="st23" x1="330.19" y1="522.43" x2="253.91" y2="525.98"/>
			<line class="st23" x1="320.43" y1="499.37" x2="248.59" y2="503.8"/>
			<line class="st23" x1="314.23" y1="470.98" x2="237.95" y2="474.53"/>
			<line class="st23" x1="310.68" y1="444.37" x2="237.06" y2="447.04"/>
			<line class="st23" x1="313.34" y1="420.43" x2="239.72" y2="423.09"/>
			<line class="st23" x1="331.97" y1="399.14" x2="258.35" y2="401.8"/>
			<line class="st23" x1="341.72" y1="380.51" x2="284.96" y2="382.29"/>
		</g>
		<path class="st22" d="M154.13,859.48c0,0,116.64,18.18,144.13,18.18c0,0,45.68-34.15,40.36-93.58
			c-5.32-59.43-26.61-80.72-37.25-92.69c-10.64-11.97-16.41-35.92-6.65-47.45c9.76-11.53,20.61-12.08,20.61-12.08
			s-5.64-0.4-46.33,4.09c-37.2,4.1-60.31,1.33-70.96,6.21c-10.64,4.88-28.83,25.72-28.38,51.89c0.44,26.17,24.39,36.81,26.61,60.76
			c2.22,23.95,9.76,36.81-2.22,59.87C182.07,837.75,178.07,852.38,154.13,859.48z"/>
		<path class="st14" d="M335.02,643.98c0,0-0.74-1.02-1.04-1.32c0,0-0.68,0.53-0.26,1.55C334.13,645.24,335.02,643.98,335.02,643.98
			z"/>
	</g>
	<g>
		<g>
			<line class="st24" x1="204.54" y1="846.18" x2="245.34" y2="850.91"/>
			<line class="st24" x1="222.87" y1="767.53" x2="306.24" y2="764.57"/>
			<line class="st24" x1="218.73" y1="746.83" x2="302.1" y2="743.88"/>
			<line class="st24" x1="213.41" y1="729.69" x2="296.19" y2="723.77"/>
			<line class="st24" x1="201.58" y1="709.58" x2="284.36" y2="703.67"/>
			<line class="st24" x1="201.58" y1="649.27" x2="283.18" y2="643.94"/>
			<line class="st24" x1="221.68" y1="790" x2="304.47" y2="789.41"/>
			<line class="st24" x1="219.91" y1="811.88" x2="299.74" y2="814.24"/>
			<line class="st24" x1="215.18" y1="828.44" x2="293.23" y2="834.94"/>
			<line class="st24" x1="189.75" y1="669.96" x2="272.54" y2="664.05"/>
			<line class="st24" x1="187.39" y1="690.07" x2="270.17" y2="684.15"/>
		</g>
	</g>
</g>
<g id="leaves">
	<path class="st1" d="M684.39,1001.69c-5.62-0.3-0.3-26.41,4.32-17.98c1.59,2.9-0.18,8.52-0.18,8.52s18.18-12.11,16.41-5.62
		c-1.77,6.49-4.69,8.45-4.69,8.45S690.01,1001.99,684.39,1001.69z"/>
	<path class="st1" d="M628.22,1002.72c0,0-24.84-30.22-20.4-44.32c4.43-14.1,13.3,22.16,13.3,22.16s-2.66-41.63,1.77-42.97
		c4.43-1.34,6.21,25.52,6.21,25.52s10.64-14.77,10.64-6.04s-2.66,37.6-2.66,37.6s15.08-22.83,13.3-12.09
		c-1.77,10.74-16.85,21.49-16.85,21.49L628.22,1002.72z"/>
	<path class="st1" d="M566.13,824c-6.24-0.75-22.17-7.1-9.76-7.98S573.52,824.89,566.13,824z"/>
	<path class="st1" d="M559.33,836.42c-1.49-0.56-13.3,2.66-2.07,4.43C568.49,842.63,567.9,839.67,559.33,836.42z"/>
	<path class="st1" d="M556.96,829.32c-1.34-1.16-16.56-4.73-8.87,1.48C555.78,837.01,567.61,838.49,556.96,829.32z"/>
	<path class="st1" d="M580.32,875.45c-10.35-2.37-21.58,2.07-10.05,6.21C581.8,885.79,590.67,877.81,580.32,875.45z"/>
	<path class="st1" d="M567.61,864.8c-7.69-1.18-22.77,0.89-7.69,5.03C575,873.97,575.29,865.99,567.61,864.8z"/>
	<path class="st1" d="M587.71,945.81c-15.37,4.43-17.44,11.53,4.73,7.39S603.09,941.38,587.71,945.81z"/>
	<path class="st1" d="M563.17,850.91c-1.48-3.84-9.17-2.07-5.03,3.25C562.28,859.48,564.65,854.75,563.17,850.91z"/>
	<path class="st1" d="M566.13,845.88c-3.25,1.48,0,5.62,3.25,4.43C572.63,849.13,569.38,844.4,566.13,845.88z"/>
	<path class="st1" d="M762.15,1003.47c0,0-2.37-11.24,1.18-26.61L762.15,1003.47z"/>
	<path class="st1" d="M746.18,1004.06c0,0,7.1-22.47-8.87-41.39C737.32,962.67,750.92,981.59,746.18,1004.06z"/>
	<path class="st3" d="M730.22,957.94c-11.83,5.32-8.28,10.05,13.01,7.1C764.52,962.07,742.05,952.61,730.22,957.94z"/>
	<path class="st3" d="M766.88,969.17c15.37,5.91,10.64,15.37-8.28,8.28S751.51,963.26,766.88,969.17z"/>
	<path class="st3" d="M734.95,983.95c0,0,32.52-4.73,19.51,3.55C741.45,995.78,713.07,995.19,734.95,983.95z"/>
	<path class="st1" d="M710.11,1001.1c0,0-4.73-17.74,0.59-11.24c5.32,6.5,4.73,9.46,4.73,9.46s7.69-15.97,6.5-8.28
		c-1.18,7.69-1.77,10.05-1.77,10.05s14.78-4.73,11.24-0.59C727.85,1004.65,710.11,1001.1,710.11,1001.1z"/>
	<g>
		<path class="st1" d="M359.46,731.46c-14.19,0.59-11.24,13.01,1.77,8.87S373.65,730.87,359.46,731.46z"/>
		<path class="st1" d="M379.8,700.87c-11.59-3.74-21.7,1.22-7.92,6.94C385.66,713.53,391.38,704.61,379.8,700.87z"/>
		<path class="st1" d="M344.09,739.15c10.64-8.28,4.73-19.51-5.32-10.05C328.71,738.56,333.44,747.43,344.09,739.15z"/>
		<path class="st1" d="M350.59,747.43c-6.5,2.96-5.32,11.24,7.1,5.32C370.11,746.83,357.1,744.47,350.59,747.43z"/>
		<path class="st1" d="M351.18,776.4c6.5,2.96,23.06,5.32,13.01-1.18S344.68,773.44,351.18,776.4z"/>
		<path class="st2" d="M374.23,786.53c-10.08-2.94-29.83,7.98-12.18,8.82C379.69,796.19,384.31,789.47,374.23,786.53z"/>
	</g>
	<path class="st2" d="M387.29,672.52c-12.13,4.75-13.71,16.35,3.69,10.02S399.42,667.77,387.29,672.52z"/>
	<path class="st2" d="M375.78,689.11c-8.51,2.62-9.62,9.02,2.59,5.53S384.28,686.49,375.78,689.11z"/>
	<path class="st2" d="M413.92,629.4c-5.54,1.19-22.55,13.05-2.37,9.49C431.73,635.33,419.46,628.21,413.92,629.4z"/>
	<path class="st2" d="M399.68,644.43c-10.29,0.4-20.18,18.99,0,13.05C419.86,651.55,409.97,644.03,399.68,644.43z"/>
	<path class="st2" d="M416.3,588.65c-10.29,2.37-9.49,14.24,3.16,8.7C432.12,591.81,426.58,586.27,416.3,588.65z"/>
	<path class="st2" d="M404.43,585.48c0,0,13.45-7.91,11.08-12.66S387.02,591.81,404.43,585.48z"/>
	<path class="st1" d="M363.41,753.67c-6.48,1.44-12.05,13.85,0.09,10.61C375.65,761.05,369.89,752.23,363.41,753.67z"/>
	<path class="st2" d="M385.44,730.27c0,0,27.3-13.05,8.31-13.05S372.38,730.27,385.44,730.27z"/>
</g>
</svg>
